<mxfile host="app.diagrams.net" modified="2021-04-21T10:47:48.804Z" agent="5.0 (Windows NT 10.0; Win64; x64) AppleWebKit/537.36 (KHTML, like Gecko) Chrome/89.0.4389.86 YaBrowser/21.3.1.185 Yowser/2.5 Safari/537.36" etag="zQhMVC_ICDoA5zdVTH-A" version="14.6.3" type="github">
  <diagram name="Page-1" id="e7e014a7-5840-1c2e-5031-d8a46d1fe8dd">
    <mxGraphModel dx="1021" dy="608" grid="1" gridSize="10" guides="1" tooltips="1" connect="1" arrows="1" fold="1" page="1" pageScale="1" pageWidth="1169" pageHeight="826" background="#ffffff" math="0" shadow="0">
      <root>
        <mxCell id="0" />
        <mxCell id="1" parent="0" />
        <mxCell id="cayVU3onndcovrMLiNNb-41" value="" style="ellipse;fillColor=#000000;strokeColor=#FF0000;" vertex="1" parent="1">
          <mxGeometry x="360" y="170" width="30" height="30" as="geometry" />
        </mxCell>
        <mxCell id="cayVU3onndcovrMLiNNb-42" value="" style="endArrow=classic;html=1;" edge="1" parent="1">
          <mxGeometry width="50" height="50" relative="1" as="geometry">
            <mxPoint x="374.8" y="200" as="sourcePoint" />
            <mxPoint x="374.8" y="230" as="targetPoint" />
          </mxGeometry>
        </mxCell>
        <mxCell id="cayVU3onndcovrMLiNNb-43" value="Ввод n" style="rounded=1;whiteSpace=wrap;html=1;fillColor=#FFFFFF;arcSize=50;" vertex="1" parent="1">
          <mxGeometry x="340" y="230" width="70" height="20" as="geometry" />
        </mxCell>
        <mxCell id="cayVU3onndcovrMLiNNb-44" value="" style="endArrow=classic;html=1;" edge="1" parent="1">
          <mxGeometry width="50" height="50" relative="1" as="geometry">
            <mxPoint x="374.8" y="250" as="sourcePoint" />
            <mxPoint x="374.8" y="300" as="targetPoint" />
          </mxGeometry>
        </mxCell>
        <mxCell id="cayVU3onndcovrMLiNNb-47" style="edgeStyle=orthogonalEdgeStyle;rounded=0;orthogonalLoop=1;jettySize=auto;html=1;exitX=1;exitY=0.5;exitDx=0;exitDy=0;" edge="1" parent="1" source="cayVU3onndcovrMLiNNb-45" target="cayVU3onndcovrMLiNNb-48">
          <mxGeometry relative="1" as="geometry">
            <mxPoint x="520" y="320.20000000000005" as="targetPoint" />
          </mxGeometry>
        </mxCell>
        <mxCell id="cayVU3onndcovrMLiNNb-45" value="" style="rhombus;strokeColor=#000000;fillColor=#FFFFFF;" vertex="1" parent="1">
          <mxGeometry x="355" y="300" width="40" height="40" as="geometry" />
        </mxCell>
        <mxCell id="cayVU3onndcovrMLiNNb-48" value="Вывод: &#39;&lt;span style=&quot;font-family: &amp;#34;jetbrains mono&amp;#34; , monospace&quot;&gt;Мы успешно сдали&#39;&lt;/span&gt;&lt;span style=&quot;font-family: &amp;#34;jetbrains mono&amp;#34; , monospace&quot;&gt;, &lt;span style=&quot;background-color: rgb(255 , 255 , 255)&quot;&gt;n&lt;/span&gt;&lt;/span&gt;&lt;span style=&quot;font-family: &amp;#34;jetbrains mono&amp;#34; , monospace&quot;&gt;, &lt;/span&gt;&lt;span style=&quot;font-family: &amp;#34;jetbrains mono&amp;#34; , monospace&quot;&gt;&quot;экзамена&quot;&lt;/span&gt;" style="rounded=1;whiteSpace=wrap;html=1;strokeColor=#000000;fillColor=#FFFFFF;arcSize=50;" vertex="1" parent="1">
          <mxGeometry x="550" y="305.1" width="200" height="29.8" as="geometry" />
        </mxCell>
        <mxCell id="cayVU3onndcovrMLiNNb-49" value="n == 2 or n == 3 or n == 4" style="text;html=1;align=center;verticalAlign=middle;resizable=0;points=[];autosize=1;strokeColor=none;" vertex="1" parent="1">
          <mxGeometry x="395" y="300" width="150" height="20" as="geometry" />
        </mxCell>
        <mxCell id="cayVU3onndcovrMLiNNb-56" value="" style="endArrow=none;html=1;" edge="1" parent="1">
          <mxGeometry width="50" height="50" relative="1" as="geometry">
            <mxPoint x="395" y="320" as="sourcePoint" />
            <mxPoint x="440" y="240" as="targetPoint" />
          </mxGeometry>
        </mxCell>
        <mxCell id="cayVU3onndcovrMLiNNb-58" value="" style="endArrow=classic;html=1;" edge="1" parent="1">
          <mxGeometry width="50" height="50" relative="1" as="geometry">
            <mxPoint x="440" y="240" as="sourcePoint" />
            <mxPoint x="550" y="240" as="targetPoint" />
          </mxGeometry>
        </mxCell>
        <mxCell id="cayVU3onndcovrMLiNNb-59" value="Вывод: &#39;&lt;span style=&quot;font-family: &amp;#34;jetbrains mono&amp;#34; , monospace&quot;&gt;Мы успешно сдали&#39;&lt;/span&gt;&lt;span style=&quot;font-family: &amp;#34;jetbrains mono&amp;#34; , monospace&quot;&gt;, &lt;span style=&quot;background-color: rgb(255 , 255 , 255)&quot;&gt;n&lt;/span&gt;&lt;/span&gt;&lt;span style=&quot;font-family: &amp;#34;jetbrains mono&amp;#34; , monospace&quot;&gt;, &lt;/span&gt;&lt;span style=&quot;font-family: &amp;#34;jetbrains mono&amp;#34; , monospace&quot;&gt;&quot;экзамен&quot;&lt;/span&gt;" style="rounded=1;whiteSpace=wrap;html=1;strokeColor=#000000;fillColor=#FFFFFF;arcSize=50;" vertex="1" parent="1">
          <mxGeometry x="550" y="225.10000000000002" width="200" height="29.8" as="geometry" />
        </mxCell>
        <mxCell id="cayVU3onndcovrMLiNNb-60" value="n == 1" style="text;html=1;align=center;verticalAlign=middle;resizable=0;points=[];autosize=1;strokeColor=none;" vertex="1" parent="1">
          <mxGeometry x="445" y="220" width="50" height="20" as="geometry" />
        </mxCell>
        <mxCell id="cayVU3onndcovrMLiNNb-61" value="" style="endArrow=none;html=1;" edge="1" parent="1">
          <mxGeometry width="50" height="50" relative="1" as="geometry">
            <mxPoint x="395" y="320" as="sourcePoint" />
            <mxPoint x="440" y="400" as="targetPoint" />
          </mxGeometry>
        </mxCell>
        <mxCell id="cayVU3onndcovrMLiNNb-62" value="" style="endArrow=classic;html=1;entryX=-0.002;entryY=0.555;entryDx=0;entryDy=0;entryPerimeter=0;" edge="1" parent="1" target="cayVU3onndcovrMLiNNb-63">
          <mxGeometry width="50" height="50" relative="1" as="geometry">
            <mxPoint x="440" y="400" as="sourcePoint" />
            <mxPoint x="540" y="400" as="targetPoint" />
          </mxGeometry>
        </mxCell>
        <mxCell id="cayVU3onndcovrMLiNNb-63" value="Вывод: &#39;&lt;span style=&quot;font-family: &amp;#34;jetbrains mono&amp;#34; , monospace&quot;&gt;Мы успешно сдали&#39;&lt;/span&gt;&lt;span style=&quot;font-family: &amp;#34;jetbrains mono&amp;#34; , monospace&quot;&gt;, &lt;span style=&quot;background-color: rgb(255 , 255 , 255)&quot;&gt;n&lt;/span&gt;&lt;/span&gt;&lt;span style=&quot;font-family: &amp;#34;jetbrains mono&amp;#34; , monospace&quot;&gt;, &lt;/span&gt;&lt;span style=&quot;font-family: &amp;#34;jetbrains mono&amp;#34; , monospace&quot;&gt;&quot;экзаменов&quot;&lt;/span&gt;" style="rounded=1;whiteSpace=wrap;html=1;strokeColor=#000000;fillColor=#FFFFFF;arcSize=50;" vertex="1" parent="1">
          <mxGeometry x="550" y="383.20000000000005" width="200" height="29.8" as="geometry" />
        </mxCell>
        <mxCell id="cayVU3onndcovrMLiNNb-64" value="else" style="text;html=1;align=center;verticalAlign=middle;resizable=0;points=[];autosize=1;strokeColor=none;" vertex="1" parent="1">
          <mxGeometry x="455" y="383.2" width="40" height="20" as="geometry" />
        </mxCell>
        <mxCell id="cayVU3onndcovrMLiNNb-65" value="" style="endArrow=classic;html=1;" edge="1" parent="1" target="cayVU3onndcovrMLiNNb-68">
          <mxGeometry width="50" height="50" relative="1" as="geometry">
            <mxPoint x="750" y="400" as="sourcePoint" />
            <mxPoint x="840" y="330" as="targetPoint" />
          </mxGeometry>
        </mxCell>
        <mxCell id="cayVU3onndcovrMLiNNb-66" value="" style="endArrow=classic;html=1;" edge="1" parent="1">
          <mxGeometry width="50" height="50" relative="1" as="geometry">
            <mxPoint x="750" y="320" as="sourcePoint" />
            <mxPoint x="840" y="320" as="targetPoint" />
          </mxGeometry>
        </mxCell>
        <mxCell id="cayVU3onndcovrMLiNNb-67" value="" style="endArrow=classic;html=1;" edge="1" parent="1" target="cayVU3onndcovrMLiNNb-68">
          <mxGeometry width="50" height="50" relative="1" as="geometry">
            <mxPoint x="750" y="240" as="sourcePoint" />
            <mxPoint x="840" y="310" as="targetPoint" />
          </mxGeometry>
        </mxCell>
        <mxCell id="cayVU3onndcovrMLiNNb-68" value="" style="rhombus;strokeColor=#000000;fillColor=#FFFFFF;" vertex="1" parent="1">
          <mxGeometry x="840" y="304.9" width="30" height="30" as="geometry" />
        </mxCell>
        <mxCell id="cayVU3onndcovrMLiNNb-69" value="" style="endArrow=classic;html=1;" edge="1" parent="1">
          <mxGeometry width="50" height="50" relative="1" as="geometry">
            <mxPoint x="870" y="320" as="sourcePoint" />
            <mxPoint x="920" y="320" as="targetPoint" />
          </mxGeometry>
        </mxCell>
        <mxCell id="cayVU3onndcovrMLiNNb-70" value="" style="ellipse;html=1;shape=endState;fillColor=#000000;strokeColor=#FF0000;" vertex="1" parent="1">
          <mxGeometry x="920" y="305" width="30" height="30" as="geometry" />
        </mxCell>
      </root>
    </mxGraphModel>
  </diagram>
</mxfile>
